<?xml version="1.0" standalone="no"?><svg xmlns="http://www.w3.org/2000/svg" viewBox="0 0 1440 320"><path fill="#e74c3c" fill-opacity="1" d="M0,160L40,186.7C80,213,160,267,240,293.3C320,320,400,320,480,293.3C560,267,640,213,720,208C800,203,880,245,960,245.3C1040,245,1120,203,1200,160C1280,117,1360,75,1400,53.3L1440,32L1440,320L1400,320C1360,320,1280,320,1200,320C1120,320,1040,320,960,320C880,320,800,320,720,320C640,320,560,320,480,320C400,320,320,320,240,320C160,320,80,320,40,320L0,320Z" style="fill:#e74c3c; fill-opacity:0.1; stroke-width:1; stroke:#e74c3c;"></path></svg>